<svg width="40" height="40" viewBox="0 0 40 40" fill="none" xmlns="http://www.w3.org/2000/svg">
<path d="M39.375 20C39.375 30.7029 30.6998 39.375 20 39.375C9.30023 39.375 0.625 30.7029 0.625 20C0.625 9.30336 9.30023 0.625 20 0.625C30.6998 0.625 39.375 9.30336 39.375 20ZM20.5199 7.03125C16.2623 7.03125 13.5469 8.82477 11.4145 12.0123C11.1383 12.4253 11.2307 12.9823 11.6266 13.2825L14.3375 15.338C14.7441 15.6463 15.3235 15.573 15.6395 15.1722C17.0351 13.402 17.992 12.3755 20.1163 12.3755C21.7123 12.3755 23.6864 13.4027 23.6864 14.9504C23.6864 16.1204 22.7205 16.7213 21.1447 17.6048C19.3069 18.635 16.875 19.9173 16.875 23.125V23.4375C16.875 23.9552 17.2948 24.375 17.8125 24.375H22.1875C22.7052 24.375 23.125 23.9552 23.125 23.4375V23.3334C23.125 21.1098 29.6239 21.0172 29.6239 15C29.6239 10.4686 24.9235 7.03125 20.5199 7.03125ZM20 26.4062C18.0184 26.4062 16.4062 28.0184 16.4062 30C16.4062 31.9816 18.0184 33.5938 20 33.5938C21.9816 33.5938 23.5938 31.9816 23.5938 30C23.5938 28.0184 21.9816 26.4062 20 26.4062Z" fill="#AB44DB"/>
</svg>
