<svg width="54" height="48" viewBox="0 0 54 48" fill="none" xmlns="http://www.w3.org/2000/svg">
<path d="M53.5386 12.9035C53.3638 12.694 53.1459 12.5256 52.9 12.4102C52.6542 12.2947 52.3864 12.235 52.1154 12.2353H42.6739C42.2238 8.8502 40.576 5.74501 38.0361 3.49524C35.4961 1.24546 32.2361 0.00365919 28.8604 0H25.1396C21.7639 0.00365919 18.5039 1.24546 15.9639 3.49524C13.424 5.74501 11.7762 8.8502 11.3261 12.2353H1.88461C1.6136 12.235 1.34581 12.2947 1.09998 12.4102C0.854151 12.5256 0.636211 12.694 0.461409 12.9035C0.280558 13.1123 0.147577 13.3589 0.0719929 13.6257C-0.00359098 13.8926 -0.0199065 14.1731 0.0242151 14.447L4.98218 42.9646C5.23596 44.3827 5.97568 45.665 7.0713 46.5859C8.16692 47.5068 9.54832 48.0075 10.9727 47.9999H43.0273C44.4482 48.0004 45.8241 47.4954 46.9141 46.5732C48.0041 45.651 48.7389 44.3703 48.9899 42.9552L53.9758 14.447C54.0199 14.1731 54.0036 13.8926 53.928 13.6257C53.8524 13.3589 53.7194 13.1123 53.5386 12.9035ZM25.1396 3.7647H28.8604C31.2504 3.76616 33.5644 4.61405 35.4011 6.16127C37.2378 7.70849 38.4813 9.85742 38.9159 12.2353H15.0841C15.5187 9.85742 16.7622 7.70849 18.5989 6.16127C20.4356 4.61405 22.7496 3.76616 25.1396 3.7647ZM45.3342 42.2964C45.2342 42.8414 44.9487 43.3337 44.5273 43.6879C44.1059 44.0421 43.5752 44.2357 43.0273 44.2352H10.9727C10.4334 44.2397 9.90932 44.0544 9.49019 43.711C9.07106 43.3676 8.78291 42.8875 8.67507 42.3529L4.09849 16H49.9015L45.3342 42.2964Z" fill="white"/>
</svg>
