<svg width="188" height="134" viewBox="0 0 188 134" fill="none" xmlns="http://www.w3.org/2000/svg">
<path d="M164.482 16.8745C141.564 -0.275524 119.606 0.206477 119.606 0.206477L117.362 2.77048C144.608 10.9445 157.27 22.9645 157.27 22.9645C118.288 1.50248 68.6359 1.65647 28.0899 22.9645C28.0899 22.9645 41.2319 10.3025 70.0819 2.12847L68.4799 0.204474C68.4799 0.204474 46.6819 -0.275524 23.6039 16.8725C23.6039 16.8725 0.523857 58.3825 0.523857 109.51C0.523857 109.51 13.9879 132.59 49.4079 133.712C49.4079 133.712 55.3379 126.66 60.1459 120.57C39.7919 114.48 32.0979 101.818 32.0979 101.818C44.8859 109.82 57.8159 114.828 73.9299 118.006C100.146 123.402 132.756 117.854 157.112 101.818C157.112 101.818 149.098 114.8 128.102 120.73C132.91 126.66 138.68 133.552 138.68 133.552C174.1 132.43 187.562 109.35 187.562 109.512C187.56 58.3845 164.482 16.8745 164.482 16.8745ZM64.1519 94.6065C55.1759 94.6065 47.8039 86.7525 47.8039 76.9765C48.4599 53.5625 80.0079 53.6345 80.4999 76.9765C80.4999 86.7525 73.2859 94.6065 64.1519 94.6065ZM122.65 94.6065C113.674 94.6065 106.302 86.7525 106.302 76.9765C107.022 53.6085 138.176 53.5985 138.998 76.9765C138.998 86.7525 131.786 94.6065 122.65 94.6065Z" fill="#FFC0F6"/>
</svg>
