<svg width="350" height="484" viewBox="0 0 350 484" fill="none" xmlns="http://www.w3.org/2000/svg">
<rect width="350" height="484" fill="url(#paint0_linear_615_777)"/>
<path d="M60.232 367.496C60.232 368.984 60.016 370.352 59.584 371.6C59.152 372.824 58.528 373.88 57.712 374.768C56.896 375.632 55.912 376.304 54.76 376.784C53.632 377.264 52.36 377.504 50.944 377.504C49.552 377.504 48.28 377.264 47.128 376.784C46 376.304 45.028 375.632 44.212 374.768C43.396 373.88 42.76 372.824 42.304 371.6C41.848 370.352 41.62 368.984 41.62 367.496C41.62 366.008 41.848 364.652 42.304 363.428C42.784 362.204 43.432 361.16 44.248 360.296C45.088 359.432 46.072 358.76 47.2 358.28C48.352 357.8 49.6 357.56 50.944 357.56C52.312 357.56 53.56 357.8 54.688 358.28C55.84 358.76 56.824 359.432 57.64 360.296C58.456 361.16 59.092 362.204 59.548 363.428C60.004 364.652 60.232 366.008 60.232 367.496ZM54.76 367.496C54.76 365.84 54.424 364.544 53.752 363.608C53.104 362.648 52.168 362.168 50.944 362.168C49.72 362.168 48.772 362.648 48.1 363.608C47.428 364.544 47.092 365.84 47.092 367.496C47.092 369.152 47.428 370.472 48.1 371.456C48.772 372.416 49.72 372.896 50.944 372.896C52.168 372.896 53.104 372.416 53.752 371.456C54.424 370.472 54.76 369.152 54.76 367.496ZM80.0472 362.456H73.9992V377H68.6352V362.456H62.5872V358.064H80.0472V362.456ZM91.9497 357.236C92.6457 356.948 93.3657 356.624 94.1097 356.264C94.8777 355.88 95.6217 355.472 96.3417 355.04C97.0617 354.584 97.7457 354.116 98.3937 353.636C99.0657 353.132 99.6657 352.604 100.194 352.052H103.938V377H98.5737V359.036C97.8537 359.516 97.0497 359.96 96.1617 360.368C95.2737 360.752 94.4097 361.088 93.5697 361.376L91.9497 357.236ZM129.115 364.472C129.115 368.672 128.311 371.9 126.703 374.156C125.119 376.388 122.923 377.504 120.115 377.504C117.307 377.504 115.099 376.388 113.491 374.156C111.907 371.9 111.115 368.672 111.115 364.472C111.115 362.384 111.319 360.536 111.727 358.928C112.159 357.32 112.771 355.964 113.563 354.86C114.355 353.756 115.303 352.916 116.407 352.34C117.511 351.764 118.747 351.476 120.115 351.476C122.923 351.476 125.119 352.604 126.703 354.86C128.311 357.092 129.115 360.296 129.115 364.472ZM123.643 364.472C123.643 363.224 123.583 362.096 123.463 361.088C123.343 360.056 123.151 359.168 122.887 358.424C122.623 357.68 122.263 357.104 121.807 356.696C121.351 356.288 120.787 356.084 120.115 356.084C119.443 356.084 118.879 356.288 118.423 356.696C117.991 357.104 117.631 357.68 117.343 358.424C117.079 359.168 116.887 360.056 116.767 361.088C116.647 362.096 116.587 363.224 116.587 364.472C116.587 365.72 116.647 366.86 116.767 367.892C116.887 368.924 117.079 369.812 117.343 370.556C117.631 371.3 117.991 371.876 118.423 372.284C118.879 372.692 119.443 372.896 120.115 372.896C120.787 372.896 121.351 372.692 121.807 372.284C122.263 371.876 122.623 371.3 122.887 370.556C123.151 369.812 123.343 368.924 123.463 367.892C123.583 366.86 123.643 365.72 123.643 364.472ZM149.576 364.472C149.576 368.672 148.772 371.9 147.164 374.156C145.58 376.388 143.384 377.504 140.576 377.504C137.768 377.504 135.56 376.388 133.952 374.156C132.368 371.9 131.576 368.672 131.576 364.472C131.576 362.384 131.78 360.536 132.188 358.928C132.62 357.32 133.232 355.964 134.024 354.86C134.816 353.756 135.764 352.916 136.868 352.34C137.972 351.764 139.208 351.476 140.576 351.476C143.384 351.476 145.58 352.604 147.164 354.86C148.772 357.092 149.576 360.296 149.576 364.472ZM144.104 364.472C144.104 363.224 144.044 362.096 143.924 361.088C143.804 360.056 143.612 359.168 143.348 358.424C143.084 357.68 142.724 357.104 142.268 356.696C141.812 356.288 141.248 356.084 140.576 356.084C139.904 356.084 139.34 356.288 138.884 356.696C138.452 357.104 138.092 357.68 137.804 358.424C137.54 359.168 137.348 360.056 137.228 361.088C137.108 362.096 137.048 363.224 137.048 364.472C137.048 365.72 137.108 366.86 137.228 367.892C137.348 368.924 137.54 369.812 137.804 370.556C138.092 371.3 138.452 371.876 138.884 372.284C139.34 372.692 139.904 372.896 140.576 372.896C141.248 372.896 141.812 372.692 142.268 372.284C142.724 371.876 143.084 371.3 143.348 370.556C143.612 369.812 143.804 368.924 143.924 367.892C144.044 366.86 144.104 365.72 144.104 364.472ZM154.053 377V351.296H162.261C165.573 351.296 167.985 351.968 169.497 353.312C171.033 354.656 171.801 356.504 171.801 358.856C171.801 360.248 171.489 361.556 170.865 362.78C170.241 364.004 169.197 364.988 167.733 365.732C166.293 366.476 164.325 366.848 161.829 366.848H159.489V377H154.053ZM151.173 373.148V369.656H165.033V373.148H151.173ZM151.173 366.848V362.384H161.721V366.848H151.173ZM161.289 362.384C162.321 362.384 163.209 362.276 163.953 362.06C164.697 361.82 165.273 361.448 165.681 360.944C166.089 360.44 166.293 359.804 166.293 359.036C166.293 357.932 165.945 357.116 165.249 356.588C164.553 356.036 163.461 355.76 161.973 355.76H159.489V362.384H161.289Z" fill="white"/>
<path d="M48.496 336H42.88V311.052H59.908V315.804H48.496V336ZM70.0355 321.456C70.0115 322.152 69.9755 322.896 69.9275 323.688C69.9035 324.456 69.8435 325.236 69.7475 326.028C69.6515 326.796 69.5195 327.552 69.3515 328.296C69.2075 329.04 69.0155 329.736 68.7755 330.384C68.4875 331.152 68.1155 331.872 67.6595 332.544C67.2275 333.192 66.6635 333.78 65.9675 334.308C65.2955 334.836 64.4675 335.28 63.4835 335.64C62.5235 335.976 61.3955 336.204 60.0995 336.324L59.3795 331.86C60.6035 331.62 61.5515 331.284 62.2235 330.852C62.8955 330.396 63.3995 329.82 63.7355 329.124C63.9995 328.524 64.2035 327.828 64.3475 327.036C64.5155 326.244 64.6355 325.416 64.7075 324.552C64.7795 323.664 64.8155 322.764 64.8155 321.852C64.8395 320.94 64.8515 320.064 64.8515 319.224V317.064H79.0715V336H73.7075V321.456H70.0355ZM91.3458 332.256C91.8738 332.256 92.3778 332.244 92.8578 332.22C93.3378 332.196 93.7218 332.16 94.0098 332.112V328.044C93.7938 327.996 93.4698 327.948 93.0378 327.9C92.6058 327.852 92.2098 327.828 91.8498 327.828C91.3458 327.828 90.8658 327.864 90.4098 327.936C89.9778 327.984 89.5938 328.092 89.2578 328.26C88.9218 328.428 88.6578 328.656 88.4658 328.944C88.2738 329.232 88.1778 329.592 88.1778 330.024C88.1778 330.864 88.4538 331.452 89.0058 331.788C89.5818 332.1 90.3618 332.256 91.3458 332.256ZM90.9138 316.56C92.4978 316.56 93.8178 316.74 94.8738 317.1C95.9298 317.46 96.7698 317.976 97.3938 318.648C98.0418 319.32 98.4978 320.136 98.7618 321.096C99.0258 322.056 99.1578 323.124 99.1578 324.3V335.46C98.3898 335.628 97.3218 335.82 95.9538 336.036C94.5858 336.276 92.9298 336.396 90.9858 336.396C89.7618 336.396 88.6458 336.288 87.6378 336.072C86.6538 335.856 85.8018 335.508 85.0818 335.028C84.3618 334.524 83.8098 333.876 83.4258 333.084C83.0418 332.292 82.8498 331.32 82.8498 330.168C82.8498 329.064 83.0658 328.128 83.4978 327.36C83.9538 326.592 84.5538 325.98 85.2978 325.524C86.0418 325.068 86.8938 324.744 87.8538 324.552C88.8138 324.336 89.8098 324.228 90.8418 324.228C91.5378 324.228 92.1498 324.264 92.6778 324.336C93.2298 324.384 93.6738 324.456 94.0098 324.552V324.048C94.0098 323.136 93.7338 322.404 93.1818 321.852C92.6298 321.3 91.6698 321.024 90.3018 321.024C89.3898 321.024 88.4898 321.096 87.6018 321.24C86.7138 321.36 85.9458 321.54 85.2978 321.78L84.6138 317.46C84.9258 317.364 85.3098 317.268 85.7658 317.172C86.2458 317.052 86.7618 316.956 87.3138 316.884C87.8658 316.788 88.4418 316.716 89.0418 316.668C89.6658 316.596 90.2898 316.56 90.9138 316.56ZM102.208 331.608H104.548C105.22 330.792 105.736 329.784 106.096 328.584C106.48 327.36 106.744 326.076 106.888 324.732C107.056 323.364 107.152 322.008 107.176 320.664C107.2 319.32 107.212 318.12 107.212 317.064H121.972V331.608H125.176V341.4H120.604V336H106.78V341.4H102.208V331.608ZM116.608 331.608V321.456H112.216C112.168 322.296 112.108 323.172 112.036 324.084C111.988 324.972 111.88 325.86 111.712 326.748C111.568 327.612 111.364 328.464 111.1 329.304C110.836 330.144 110.488 330.912 110.056 331.608H116.608ZM145.651 317.064V336H140.251C140.251 334.8 140.263 333.612 140.287 332.436C140.311 331.236 140.335 330.132 140.359 329.124C140.383 328.116 140.407 327.24 140.431 326.496C140.479 325.728 140.503 325.164 140.503 324.804C139.807 325.788 139.111 326.784 138.415 327.792C137.719 328.8 137.047 329.796 136.399 330.78C135.775 331.74 135.175 332.664 134.599 333.552C134.047 334.44 133.555 335.256 133.123 336H128.407V317.064H133.771C133.771 318.264 133.759 319.416 133.735 320.52C133.735 321.6 133.723 322.584 133.699 323.472C133.675 324.36 133.651 325.14 133.627 325.812C133.603 326.46 133.591 326.964 133.591 327.324C135.031 325.212 136.351 323.316 137.551 321.636C138.775 319.956 139.963 318.432 141.115 317.064H145.651ZM157.932 332.256C158.46 332.256 158.964 332.244 159.444 332.22C159.924 332.196 160.308 332.16 160.596 332.112V328.044C160.38 327.996 160.056 327.948 159.624 327.9C159.192 327.852 158.796 327.828 158.436 327.828C157.932 327.828 157.452 327.864 156.996 327.936C156.564 327.984 156.18 328.092 155.844 328.26C155.508 328.428 155.244 328.656 155.052 328.944C154.86 329.232 154.764 329.592 154.764 330.024C154.764 330.864 155.04 331.452 155.592 331.788C156.168 332.1 156.948 332.256 157.932 332.256ZM157.5 316.56C159.084 316.56 160.404 316.74 161.46 317.1C162.516 317.46 163.356 317.976 163.98 318.648C164.628 319.32 165.084 320.136 165.348 321.096C165.612 322.056 165.744 323.124 165.744 324.3V335.46C164.976 335.628 163.908 335.82 162.54 336.036C161.172 336.276 159.516 336.396 157.572 336.396C156.348 336.396 155.232 336.288 154.224 336.072C153.24 335.856 152.388 335.508 151.668 335.028C150.948 334.524 150.396 333.876 150.012 333.084C149.628 332.292 149.436 331.32 149.436 330.168C149.436 329.064 149.652 328.128 150.084 327.36C150.54 326.592 151.14 325.98 151.884 325.524C152.628 325.068 153.48 324.744 154.44 324.552C155.4 324.336 156.396 324.228 157.428 324.228C158.124 324.228 158.736 324.264 159.264 324.336C159.816 324.384 160.26 324.456 160.596 324.552V324.048C160.596 323.136 160.32 322.404 159.768 321.852C159.216 321.3 158.256 321.024 156.888 321.024C155.976 321.024 155.076 321.096 154.188 321.24C153.3 321.36 152.532 321.54 151.884 321.78L151.2 317.46C151.512 317.364 151.896 317.268 152.352 317.172C152.832 317.052 153.348 316.956 153.9 316.884C154.452 316.788 155.028 316.716 155.628 316.668C156.252 316.596 156.876 316.56 157.5 316.56ZM186.254 321.456H180.206V336H174.842V321.456H168.794V317.064H186.254V321.456ZM207.22 326.496C207.22 327.984 207.004 329.352 206.572 330.6C206.14 331.824 205.516 332.88 204.7 333.768C203.884 334.632 202.9 335.304 201.748 335.784C200.62 336.264 199.348 336.504 197.932 336.504C196.54 336.504 195.268 336.264 194.116 335.784C192.988 335.304 192.016 334.632 191.2 333.768C190.384 332.88 189.748 331.824 189.292 330.6C188.836 329.352 188.608 327.984 188.608 326.496C188.608 325.008 188.836 323.652 189.292 322.428C189.772 321.204 190.42 320.16 191.236 319.296C192.076 318.432 193.06 317.76 194.188 317.28C195.34 316.8 196.588 316.56 197.932 316.56C199.3 316.56 200.548 316.8 201.676 317.28C202.828 317.76 203.812 318.432 204.628 319.296C205.444 320.16 206.08 321.204 206.536 322.428C206.992 323.652 207.22 325.008 207.22 326.496ZM201.748 326.496C201.748 324.84 201.412 323.544 200.74 322.608C200.092 321.648 199.156 321.168 197.932 321.168C196.708 321.168 195.76 321.648 195.088 322.608C194.416 323.544 194.08 324.84 194.08 326.496C194.08 328.152 194.416 329.472 195.088 330.456C195.76 331.416 196.708 331.896 197.932 331.896C199.156 331.896 200.092 331.416 200.74 330.456C201.412 329.472 201.748 328.152 201.748 326.496ZM223.507 326.676C223.507 325.02 223.135 323.7 222.391 322.716C221.647 321.708 220.543 321.204 219.079 321.204C218.599 321.204 218.155 321.228 217.747 321.276C217.339 321.3 217.003 321.336 216.739 321.384V331.068C217.075 331.284 217.507 331.464 218.035 331.608C218.587 331.752 219.139 331.824 219.691 331.824C222.235 331.824 223.507 330.108 223.507 326.676ZM228.979 326.532C228.979 327.996 228.799 329.328 228.439 330.528C228.079 331.728 227.551 332.76 226.855 333.624C226.159 334.488 225.295 335.16 224.263 335.64C223.231 336.12 222.043 336.36 220.699 336.36C219.955 336.36 219.259 336.288 218.611 336.144C217.963 336 217.339 335.796 216.739 335.532V342.66H211.375V317.712C211.855 317.568 212.407 317.436 213.031 317.316C213.655 317.172 214.303 317.052 214.975 316.956C215.671 316.86 216.367 316.788 217.063 316.74C217.783 316.668 218.467 316.632 219.115 316.632C220.675 316.632 222.067 316.872 223.291 317.352C224.515 317.808 225.547 318.468 226.387 319.332C227.227 320.172 227.863 321.204 228.295 322.428C228.751 323.652 228.979 325.02 228.979 326.532Z" fill="white"/>
<g filter="url(#filter0_ii_615_777)">
<rect x="40" y="404" width="270" height="40" fill="#E83CCE"/>
<path d="M137.4 418.912V430H134.904V421.024H130.776V430H128.28V418.912H137.4ZM145.2 425.856C145.2 425.12 145.034 424.533 144.704 424.096C144.373 423.648 143.882 423.424 143.232 423.424C143.018 423.424 142.821 423.435 142.64 423.456C142.458 423.467 142.309 423.483 142.192 423.504V427.808C142.341 427.904 142.533 427.984 142.768 428.048C143.013 428.112 143.258 428.144 143.504 428.144C144.634 428.144 145.2 427.381 145.2 425.856ZM147.632 425.792C147.632 426.443 147.552 427.035 147.392 427.568C147.232 428.101 146.997 428.56 146.688 428.944C146.378 429.328 145.994 429.627 145.536 429.84C145.077 430.053 144.549 430.16 143.952 430.16C143.621 430.16 143.312 430.128 143.024 430.064C142.736 430 142.458 429.909 142.192 429.792V432.96H139.808V421.872C140.021 421.808 140.266 421.749 140.544 421.696C140.821 421.632 141.109 421.579 141.408 421.536C141.717 421.493 142.026 421.461 142.336 421.44C142.656 421.408 142.96 421.392 143.248 421.392C143.941 421.392 144.56 421.499 145.104 421.712C145.648 421.915 146.106 422.208 146.48 422.592C146.853 422.965 147.136 423.424 147.328 423.968C147.53 424.512 147.632 425.12 147.632 425.792ZM157.128 421.584V430H154.728C154.728 429.467 154.733 428.939 154.744 428.416C154.754 427.883 154.765 427.392 154.776 426.944C154.786 426.496 154.797 426.107 154.808 425.776C154.829 425.435 154.84 425.184 154.84 425.024C154.53 425.461 154.221 425.904 153.912 426.352C153.602 426.8 153.304 427.243 153.016 427.68C152.738 428.107 152.472 428.517 152.216 428.912C151.97 429.307 151.752 429.669 151.56 430H149.464V421.584H151.848C151.848 422.117 151.842 422.629 151.832 423.12C151.832 423.6 151.826 424.037 151.816 424.432C151.805 424.827 151.794 425.173 151.784 425.472C151.773 425.76 151.768 425.984 151.768 426.144C152.408 425.205 152.994 424.363 153.528 423.616C154.072 422.869 154.6 422.192 155.112 421.584H157.128ZM167.242 425.776C167.242 426.437 167.146 427.045 166.954 427.6C166.762 428.144 166.485 428.613 166.122 429.008C165.759 429.392 165.322 429.691 164.81 429.904C164.309 430.117 163.743 430.224 163.114 430.224C162.495 430.224 161.93 430.117 161.418 429.904C160.917 429.691 160.485 429.392 160.122 429.008C159.759 428.613 159.477 428.144 159.274 427.6C159.071 427.045 158.97 426.437 158.97 425.776C158.97 425.115 159.071 424.512 159.274 423.968C159.487 423.424 159.775 422.96 160.138 422.576C160.511 422.192 160.949 421.893 161.45 421.68C161.962 421.467 162.517 421.36 163.114 421.36C163.722 421.36 164.277 421.467 164.778 421.68C165.29 421.893 165.727 422.192 166.09 422.576C166.453 422.96 166.735 423.424 166.938 423.968C167.141 424.512 167.242 425.115 167.242 425.776ZM164.81 425.776C164.81 425.04 164.661 424.464 164.362 424.048C164.074 423.621 163.658 423.408 163.114 423.408C162.57 423.408 162.149 423.621 161.85 424.048C161.551 424.464 161.402 425.04 161.402 425.776C161.402 426.512 161.551 427.099 161.85 427.536C162.149 427.963 162.57 428.176 163.114 428.176C163.658 428.176 164.074 427.963 164.362 427.536C164.661 427.099 164.81 426.512 164.81 425.776ZM176.433 419.616C176.038 419.701 175.665 419.76 175.313 419.792C174.961 419.824 174.598 419.872 174.225 419.936C173.905 419.989 173.585 420.069 173.265 420.176C172.945 420.283 172.646 420.432 172.369 420.624C172.102 420.805 171.867 421.04 171.665 421.328C171.462 421.605 171.318 421.952 171.233 422.368C171.926 422.037 172.598 421.872 173.249 421.872C173.761 421.872 174.235 421.957 174.673 422.128C175.11 422.299 175.489 422.555 175.809 422.896C176.139 423.237 176.395 423.664 176.577 424.176C176.769 424.677 176.865 425.264 176.865 425.936C176.865 426.661 176.758 427.291 176.545 427.824C176.331 428.357 176.038 428.805 175.665 429.168C175.302 429.52 174.875 429.787 174.385 429.968C173.905 430.139 173.387 430.224 172.833 430.224C171.35 430.224 170.289 429.776 169.649 428.88C169.009 427.973 168.689 426.645 168.689 424.896C168.689 423.744 168.801 422.768 169.025 421.968C169.249 421.157 169.585 420.485 170.033 419.952C170.481 419.408 171.035 418.981 171.697 418.672C172.358 418.363 173.126 418.117 174.001 417.936C174.353 417.861 174.705 417.808 175.057 417.776C175.419 417.733 175.787 417.669 176.161 417.584L176.433 419.616ZM171.185 424.32C171.163 424.469 171.147 424.64 171.137 424.832C171.137 425.024 171.137 425.195 171.137 425.344C171.137 426.283 171.265 426.992 171.521 427.472C171.787 427.952 172.23 428.192 172.849 428.192C173.371 428.192 173.771 427.989 174.049 427.584C174.326 427.179 174.465 426.635 174.465 425.952C174.465 425.685 174.433 425.429 174.369 425.184C174.305 424.928 174.203 424.704 174.065 424.512C173.926 424.32 173.755 424.165 173.553 424.048C173.35 423.931 173.11 423.872 172.833 423.872C172.555 423.872 172.262 423.904 171.953 423.968C171.654 424.032 171.398 424.149 171.185 424.32ZM184.09 425.856C184.09 425.12 183.925 424.533 183.594 424.096C183.263 423.648 182.773 423.424 182.122 423.424C181.909 423.424 181.711 423.435 181.53 423.456C181.349 423.467 181.199 423.483 181.082 423.504V427.808C181.231 427.904 181.423 427.984 181.658 428.048C181.903 428.112 182.149 428.144 182.394 428.144C183.525 428.144 184.09 427.381 184.09 425.856ZM186.522 425.792C186.522 426.443 186.442 427.035 186.282 427.568C186.122 428.101 185.887 428.56 185.578 428.944C185.269 429.328 184.885 429.627 184.426 429.84C183.967 430.053 183.439 430.16 182.842 430.16C182.511 430.16 182.202 430.128 181.914 430.064C181.626 430 181.349 429.909 181.082 429.792V432.96H178.698V421.872C178.911 421.808 179.157 421.749 179.434 421.696C179.711 421.632 179.999 421.579 180.298 421.536C180.607 421.493 180.917 421.461 181.226 421.44C181.546 421.408 181.85 421.392 182.138 421.392C182.831 421.392 183.45 421.499 183.994 421.712C184.538 421.915 184.997 422.208 185.37 422.592C185.743 422.965 186.026 423.424 186.218 423.968C186.421 424.512 186.522 425.12 186.522 425.792ZM187.954 425.856C187.954 425.109 188.066 424.459 188.29 423.904C188.525 423.339 188.829 422.869 189.202 422.496C189.576 422.123 190.002 421.84 190.482 421.648C190.973 421.456 191.474 421.36 191.986 421.36C193.181 421.36 194.125 421.728 194.818 422.464C195.512 423.189 195.858 424.261 195.858 425.68C195.858 425.819 195.853 425.973 195.842 426.144C195.832 426.304 195.821 426.448 195.81 426.576H190.402C190.456 427.067 190.685 427.456 191.09 427.744C191.496 428.032 192.04 428.176 192.722 428.176C193.16 428.176 193.586 428.139 194.002 428.064C194.429 427.979 194.776 427.877 195.042 427.76L195.362 429.696C195.234 429.76 195.064 429.824 194.85 429.888C194.637 429.952 194.397 430.005 194.13 430.048C193.874 430.101 193.597 430.144 193.298 430.176C193 430.208 192.701 430.224 192.402 430.224C191.645 430.224 190.984 430.112 190.418 429.888C189.864 429.664 189.4 429.36 189.026 428.976C188.664 428.581 188.392 428.117 188.21 427.584C188.04 427.051 187.954 426.475 187.954 425.856ZM193.554 424.944C193.544 424.741 193.506 424.544 193.442 424.352C193.389 424.16 193.298 423.989 193.17 423.84C193.053 423.691 192.898 423.568 192.706 423.472C192.525 423.376 192.296 423.328 192.018 423.328C191.752 423.328 191.522 423.376 191.33 423.472C191.138 423.557 190.978 423.675 190.85 423.824C190.722 423.973 190.621 424.149 190.546 424.352C190.482 424.544 190.434 424.741 190.402 424.944H193.554ZM197.298 425.792C197.298 425.184 197.394 424.613 197.586 424.08C197.789 423.536 198.077 423.067 198.45 422.672C198.823 422.267 199.277 421.947 199.81 421.712C200.343 421.477 200.951 421.36 201.634 421.36C202.082 421.36 202.493 421.403 202.866 421.488C203.239 421.563 203.602 421.675 203.954 421.824L203.458 423.728C203.234 423.643 202.989 423.568 202.722 423.504C202.455 423.44 202.157 423.408 201.826 423.408C201.122 423.408 200.594 423.627 200.242 424.064C199.901 424.501 199.73 425.077 199.73 425.792C199.73 426.549 199.89 427.136 200.21 427.552C200.541 427.968 201.111 428.176 201.922 428.176C202.21 428.176 202.519 428.149 202.85 428.096C203.181 428.043 203.485 427.957 203.762 427.84L204.098 429.792C203.821 429.909 203.474 430.011 203.058 430.096C202.642 430.181 202.183 430.224 201.682 430.224C200.914 430.224 200.253 430.112 199.698 429.888C199.143 429.653 198.685 429.339 198.322 428.944C197.97 428.549 197.709 428.085 197.538 427.552C197.378 427.008 197.298 426.421 197.298 425.792ZM212.658 423.536H209.97V430H207.586V423.536H204.898V421.584H212.658V423.536ZM221.768 421.584V430H219.368C219.368 429.467 219.374 428.939 219.384 428.416C219.395 427.883 219.406 427.392 219.416 426.944C219.427 426.496 219.438 426.107 219.448 425.776C219.47 425.435 219.48 425.184 219.48 425.024C219.171 425.461 218.862 425.904 218.552 426.352C218.243 426.8 217.944 427.243 217.656 427.68C217.379 428.107 217.112 428.517 216.856 428.912C216.611 429.307 216.392 429.669 216.2 430H214.104V421.584H216.488C216.488 422.117 216.483 422.629 216.472 423.12C216.472 423.6 216.467 424.037 216.456 424.432C216.446 424.827 216.435 425.173 216.424 425.472C216.414 425.76 216.408 425.984 216.408 426.144C217.048 425.205 217.635 424.363 218.168 423.616C218.712 422.869 219.24 422.192 219.752 421.584H221.768Z" fill="white"/>
<rect x="40.5" y="404.5" width="269" height="39" stroke="black"/>
</g>
<defs>
<filter id="filter0_ii_615_777" x="40" y="404" width="270" height="40" filterUnits="userSpaceOnUse" color-interpolation-filters="sRGB">
<feFlood flood-opacity="0" result="BackgroundImageFix"/>
<feBlend mode="normal" in="SourceGraphic" in2="BackgroundImageFix" result="shape"/>
<feColorMatrix in="SourceAlpha" type="matrix" values="0 0 0 0 0 0 0 0 0 0 0 0 0 0 0 0 0 0 127 0" result="hardAlpha"/>
<feOffset dx="6" dy="5"/>
<feComposite in2="hardAlpha" operator="arithmetic" k2="-1" k3="1"/>
<feColorMatrix type="matrix" values="0 0 0 0 1 0 0 0 0 1 0 0 0 0 1 0 0 0 0.5 0"/>
<feBlend mode="normal" in2="shape" result="effect1_innerShadow_615_777"/>
<feColorMatrix in="SourceAlpha" type="matrix" values="0 0 0 0 0 0 0 0 0 0 0 0 0 0 0 0 0 0 127 0" result="hardAlpha"/>
<feOffset dx="-6" dy="-5"/>
<feComposite in2="hardAlpha" operator="arithmetic" k2="-1" k3="1"/>
<feColorMatrix type="matrix" values="0 0 0 0 0 0 0 0 0 0 0 0 0 0 0 0 0 0 0.25 0"/>
<feBlend mode="normal" in2="effect1_innerShadow_615_777" result="effect2_innerShadow_615_777"/>
</filter>
<linearGradient id="paint0_linear_615_777" x1="175" y1="0" x2="175" y2="484" gradientUnits="userSpaceOnUse">
<stop stop-opacity="0"/>
<stop offset="0.6875" stop-opacity="0.947917"/>
<stop offset="0.75" stop-opacity="0.985632"/>
<stop offset="0.838542"/>
</linearGradient>
</defs>
</svg>
