<svg width="20" height="20" viewBox="0 0 20 20" fill="none" xmlns="http://www.w3.org/2000/svg">
<path d="M10.3333 18.6667C14.9167 18.6667 18.6667 14.9167 18.6667 10.3333C18.6667 5.75 14.9167 2 10.3333 2C5.75 2 2 5.75 2 10.3333C2 14.9167 5.75 18.6667 10.3333 18.6667ZM10.5833 6.40833C10.75 6.25833 10.95 6.16667 11.1667 6.16667C11.3917 6.16667 11.5833 6.25833 11.7583 6.40833C11.9167 6.58333 12 6.78333 12 7C12 7.225 11.9167 7.41667 11.7583 7.59167C11.5833 7.75 11.3917 7.83333 11.1667 7.83333C10.95 7.83333 10.75 7.75 10.5833 7.59167C10.425 7.41667 10.3333 7.225 10.3333 7C10.3333 6.78333 10.425 6.58333 10.5833 6.40833ZM8.5 10.3083C8.5 10.3083 10.3083 8.875 10.9667 8.81667C11.5833 8.76667 11.4583 9.475 11.4 9.84167L11.3917 9.89167C11.275 10.3333 11.1333 10.8667 10.9917 11.375C10.675 12.5333 10.3667 13.6667 10.4417 13.875C10.525 14.1583 11.0417 13.8 11.4167 13.55C11.4667 13.5167 11.5083 13.4833 11.55 13.4583C11.55 13.4583 11.6167 13.3917 11.6833 13.4833C11.7 13.5083 11.7167 13.5333 11.7333 13.55C11.8083 13.6667 11.85 13.7083 11.75 13.775L11.7167 13.7917C11.5333 13.9167 10.75 14.4667 10.4333 14.6667C10.0917 14.8917 8.78333 15.6417 8.98333 14.1833C9.15833 13.1583 9.39167 12.275 9.575 11.5833C9.91667 10.3333 10.0667 9.76667 9.3 10.2583C8.99167 10.4417 8.80833 10.5583 8.7 10.6333C8.60833 10.7 8.6 10.7 8.54167 10.5917L8.51667 10.5417L8.475 10.475C8.41667 10.3917 8.41667 10.3833 8.5 10.3083Z" fill="white"/>
</svg>
