<svg width="30" height="30" viewBox="0 0 30 30" fill="none" xmlns="http://www.w3.org/2000/svg">
<path d="M7.2951 22.91C6.25042 21.8653 5.42174 20.6251 4.85637 19.2602C4.29099 17.8953 4 16.4324 4 14.955C4 13.4776 4.29099 12.0147 4.85637 10.6498C5.42174 9.28486 6.25042 8.04466 7.2951 7M23.2051 7C24.2498 8.04466 25.0785 9.28486 25.6438 10.6498C26.2092 12.0147 26.5002 13.4776 26.5002 14.955C26.5002 16.4324 26.2092 17.8953 25.6438 19.2602C25.0785 20.6251 24.2498 21.8653 23.2051 22.91M10.8301 19.3738C9.6584 18.2017 9.00018 16.6123 9.00018 14.955C9.00018 13.2977 9.6584 11.7083 10.8301 10.5362M19.6701 10.5362C20.8418 11.7083 21.5 13.2977 21.5 14.955C21.5 16.6123 20.8418 18.2017 19.6701 19.3738M16.5001 14.955C16.5001 15.2865 16.3684 15.6045 16.134 15.8389C15.8996 16.0733 15.5816 16.205 15.2501 16.205C14.9186 16.205 14.6006 16.0733 14.3662 15.8389C14.1318 15.6045 14.0001 15.2865 14.0001 14.955C14.0001 14.6235 14.1318 14.3055 14.3662 14.0711C14.6006 13.8367 14.9186 13.705 15.2501 13.705C15.5816 13.705 15.8996 13.8367 16.134 14.0711C16.3684 14.3055 16.5001 14.6235 16.5001 14.955Z" stroke="white" stroke-width="2" stroke-linecap="round" stroke-linejoin="round"/>
</svg>
