<svg width="38" height="32" viewBox="0 0 38 32" fill="none" xmlns="http://www.w3.org/2000/svg">
<path fill-rule="evenodd" clip-rule="evenodd" d="M9.5 16C9.5 15.6851 9.62511 15.383 9.84781 15.1603C10.0705 14.9376 10.3726 14.8125 10.6875 14.8125H24.4459L19.3467 9.71579C19.1238 9.49281 18.9985 9.19038 18.9985 8.87504C18.9985 8.55969 19.1238 8.25727 19.3467 8.03429C19.5697 7.8113 19.8722 7.68604 20.1875 7.68604C20.5028 7.68604 20.8053 7.8113 21.0283 8.03429L28.1533 15.1593C28.2638 15.2696 28.3516 15.4006 28.4114 15.5449C28.4713 15.6892 28.5021 15.8438 28.5021 16C28.5021 16.1562 28.4713 16.3109 28.4114 16.4552C28.3516 16.5994 28.2638 16.7305 28.1533 16.8408L21.0283 23.9658C20.8053 24.1888 20.5028 24.314 20.1875 24.314C19.8722 24.314 19.5697 24.1888 19.3467 23.9658C19.1238 23.7428 18.9985 23.4404 18.9985 23.125C18.9985 22.8097 19.1238 22.5073 19.3467 22.2843L24.4459 17.1875H10.6875C10.3726 17.1875 10.0705 17.0624 9.84781 16.8397C9.62511 16.617 9.5 16.315 9.5 16Z" fill="#6330B0"/>
</svg>
