<svg width="200" height="115" viewBox="0 0 200 115" fill="none" xmlns="http://www.w3.org/2000/svg">
<path d="M178.021 80.15C178.021 80.15 194.191 96.12 198.191 103.51C198.269 103.617 198.329 103.735 198.371 103.86C200.001 106.59 200.401 108.73 199.601 110.31C198.251 112.92 193.681 114.23 192.131 114.34H163.551C161.561 114.34 157.421 113.82 152.381 110.34C148.531 107.65 144.701 103.22 140.991 98.89C135.451 92.46 130.661 86.88 125.811 86.88C125.198 86.8787 124.59 86.9801 124.011 87.18C120.341 88.34 115.681 93.57 115.681 107.5C115.681 111.86 112.241 114.34 109.831 114.34H96.7409C92.2809 114.34 69.0609 112.78 48.4709 91.07C23.2409 64.49 0.580901 11.17 0.360901 10.7C-1.0491 7.25 1.9109 5.37 5.1109 5.37H33.9709C37.8409 5.37 39.1009 7.71 39.9809 9.81C41.0009 12.22 44.7809 21.86 50.9809 32.69C61.0209 50.31 67.1909 57.48 72.1209 57.48C73.0471 57.4827 73.9577 57.2413 74.7609 56.78C81.2009 53.24 80.0009 30.24 79.7009 25.5C79.7009 24.58 79.6909 15.23 76.3909 10.71C74.0309 7.47 70.0109 6.21 67.5809 5.75C68.2309 4.81 69.6109 3.37 71.3809 2.52C75.7909 0.319999 83.7609 0 91.6709 0H96.0609C104.641 0.12 106.861 0.669999 109.981 1.46C116.261 2.96 116.381 7.03 115.831 20.89C115.671 24.85 115.501 29.31 115.501 34.56C115.501 35.68 115.451 36.93 115.451 38.2C115.261 45.31 115.011 53.32 120.031 56.61C120.682 57.0156 121.434 57.2304 122.201 57.23C123.941 57.23 129.151 57.23 143.281 32.98C149.481 22.27 154.281 9.64 154.611 8.69C154.891 8.16 155.731 6.67 156.751 6.07C157.477 5.68395 158.289 5.4911 159.111 5.51H193.061C196.761 5.51 199.271 6.07 199.761 7.47C200.581 9.74 199.601 16.67 184.101 37.63C181.491 41.12 179.201 44.14 177.191 46.78C163.141 65.22 163.141 66.15 178.021 80.15Z" fill="#FFC0F6"/>
</svg>
